<?xml version="1.0" encoding="UTF-8"?>
<svg version="1.1" xmlns="http://www.w3.org/2000/svg" width="1205" height="600">
<path d="M0 0 C15.17339298 -0.80645986 28.7388464 3.39788493 40.36889648 13.30224609 C47.50928216 19.72274592 52.50228716 26.58765029 56.95556641 35.05078125 C57.9971222 36.99462918 59.10277536 38.88629532 60.23046875 40.78125 C78.30818458 71.88332405 81.45428061 108.59718641 85.86328125 143.55859375 C86.03629257 144.92088608 86.03629257 144.92088608 86.21279907 146.31069946 C86.36910294 147.56733902 86.36910294 147.56733902 86.52856445 148.84936523 C86.66582695 149.94751808 86.66582695 149.94751808 86.80586243 151.06785583 C87 153 87 153 87 156 C87.78375 155.67 88.5675 155.34 89.375 155 C94.18737222 153.67244904 100.37146715 152.68573358 105 155 C105.1546875 156.4540625 105.1546875 156.4540625 105.3125 157.9375 C105.539375 158.948125 105.76625 159.95875 106 161 C108.46255685 162.45291273 108.46255685 162.45291273 111 163 C110.67 164.98 110.34 166.96 110 169 C111.65 169.33 113.3 169.66 115 170 C114.42655063 172.86724686 114.1385485 173.8614515 112 176 C113.21580154 177.59761892 113.21580154 177.59761892 115 179 C117.18877068 179.212876 117.18877068 179.212876 119.5 178.9375 C123.75615922 178.77832657 123.75615922 178.77832657 126.0625 180.875 C127 183 127 183 127 185 C127.99 184.67 128.98 184.34 130 184 C130 184.66 130 185.32 130 186 C127.84765625 187.4375 127.84765625 187.4375 125.0625 189 C121.37612792 190.86077895 121.37612792 190.86077895 119 194 C119.33 194.66 119.66 195.32 120 196 C120.4375 198.8125 120.4375 198.8125 120 202 C115.64074768 206.26359474 110.96310523 208.71183582 105.4375 211.1875 C104.69564453 211.52974609 103.95378906 211.87199219 103.18945312 212.22460938 C99.49524108 213.91874936 95.78023782 215.5058689 92 217 C92.50718435 221.81650776 93.02236127 226.63207821 93.54418945 231.44702148 C93.71976026 233.07668281 93.89334246 234.7065599 94.06469727 236.33666992 C95.25658393 247.6578456 96.8745655 258.81571825 99 270 C105.77702241 263.52253397 108.6209181 253.83336691 111.04296875 245.0078125 C112 242 112 242 113.42578125 239.1796875 C115.38235402 235.22770181 116.66764228 231.19527513 118 227 C118.53590624 225.3626732 119.0737059 223.72596507 119.61328125 222.08984375 C120.02610352 220.8361499 120.02610352 220.8361499 120.44726562 219.55712891 C122.82634212 212.35411231 125.25316718 205.19649537 128 198.125 C130.89341757 190.64944521 133.20482478 183.01857278 135.46484375 175.33056641 C136.85236645 170.6378134 138.32528802 166.01626794 140.0234375 161.42578125 C143.82002478 151.05828264 145.9338421 141.00139567 147.64547729 130.12271118 C163.05879745 33.18629353 163.05879745 33.18629353 190.625 13.0859375 C193.37040483 11.29379824 196.15452092 9.62772769 199 8 C199.81082031 7.51402344 200.62164062 7.02804688 201.45703125 6.52734375 C208.73117868 2.27686237 215.67301057 0.71751836 224 0 C224 0.66 224 1.32 224 2 C221.69 2.66 219.38 3.32 217 4 C217.75023437 4.32871094 218.50046875 4.65742187 219.2734375 4.99609375 C233.2306979 11.48252837 241.21946501 20.43893002 248 34 C249.65 33.67 251.3 33.34 253 33 C254.21674717 35.3501132 255.42318472 37.70475692 256.625 40.0625 C257.12193359 41.01866211 257.12193359 41.01866211 257.62890625 41.99414062 C263.7459872 54.05517759 267.88375112 66.06534825 270.625 79.3125 C270.89828125 80.55322266 271.1715625 81.79394531 271.453125 83.07226562 C277.08801725 109.09302735 279.71081897 135.66797197 282.71777344 162.08752441 C284.77632918 180.17315017 286.89958684 198.22609144 289.72265625 216.2109375 C289.83029234 216.89890034 289.93792843 217.58686317 290.04882622 218.29567337 C291.11938451 225.74235931 291.11938451 225.74235931 293 233 C293.14397217 232.26330078 293.28794434 231.52660156 293.4362793 230.76757812 C299.23534362 201.34836774 306.05779624 172.16742211 313 143 C313.2768866 141.83279419 313.55377319 140.66558838 313.83905029 139.4630127 C331.16901947 66.46851349 331.16901947 66.46851349 346 37 C346.29712891 36.39768555 346.59425781 35.79537109 346.90039062 35.17480469 C354.92512714 18.99420852 364.44606356 9.45543291 381 2 C384.66912824 1.17537269 388.12211251 0.88063807 391.875 0.9375 C393.04675781 0.95103516 393.04675781 0.95103516 394.2421875 0.96484375 C394.82226562 0.97644531 395.40234375 0.98804687 396 1 C394 2 392 3 390 4 C390.50789062 4.25394531 391.01578125 4.50789063 391.5390625 4.76953125 C392.97969211 5.48984606 394.41837988 6.21405304 395.85546875 6.94140625 C397.52387697 7.76497388 399.22545601 8.52147064 400.9375 9.25 C408.11679572 13.3524547 413.54692644 19.10491837 418 26 C419.32 25.67 420.64 25.34 422 25 C442.79712704 50.585469 443.32623202 87.43215231 445.98084259 118.88156128 C446.3360355 123.05974297 446.70324703 127.23686679 447.06982422 131.4140625 C447.54260054 136.80767493 448.01471509 142.2013392 448.48272705 147.59536743 C450.19730884 167.35304714 451.96565812 187.10581147 453.75358105 206.85698032 C454.23056236 212.12703238 454.70584765 217.39722158 455.17611694 222.6678772 C457.32399155 246.73873637 459.64442763 270.77781697 462.35134888 294.79296875 C463.45979683 304.66912278 464.41906281 314.51837327 465.0625 324.4375 C465.71209818 333.3953024 467.0337501 341.4926305 470 350 C470.37125 351.08539063 470.7425 352.17078125 471.125 353.2890625 C475.19670025 364.08442565 481.27437692 370.08169448 491 376 C491.99 376.66 492.98 377.32 494 378 C493.40832031 378.12117188 492.81664062 378.24234375 492.20703125 378.3671875 C491.41683594 378.53476562 490.62664063 378.70234375 489.8125 378.875 C489.03519531 379.03742188 488.25789062 379.19984375 487.45703125 379.3671875 C484.94153278 379.93429656 484.94153278 379.93429656 482.5234375 381.16015625 C477.697131 382.76643473 473.37908135 380.10125275 469 378 C438.79589741 360.36613422 426.33347243 319.61186141 417 288 C417 287.34 417 286.68 417 286 C416.01 286 415.02 286 414 286 C401.18823909 221.01094554 392.32583738 155.69413977 384 90 C379.28641131 105.2574103 375.42319488 120.41876248 372.5625 136.125 C372.18825732 138.12807133 371.81323947 140.13099796 371.4375 142.13378906 C368.2953832 158.98309658 365.34916998 175.86922746 362.47485352 192.76611328 C362.23515587 194.16994766 362.23515587 194.16994766 361.99061584 195.60214233 C361.69266124 197.35000411 361.39675012 199.09821594 361.10325623 200.84683228 C360.56744902 203.98997445 360.01003061 206.96990818 359 210 C359.66 210 360.32 210 361 210 C354.53000674 241.46586787 346.95264472 277.66672344 326 303 C325.09701172 304.10794922 325.09701172 304.10794922 324.17578125 305.23828125 C317.75683634 312.38389917 307.76891633 317.64561541 298.12109375 318.23828125 C283.89754639 318.57671935 274.58083278 316.00877727 264.0078125 306.140625 C237.81490835 279.03045962 235.02427984 230.22736292 229 195 C228.85135498 194.13286377 228.70270996 193.26572754 228.54956055 192.37231445 C225.78065058 176.18614607 223.11598595 159.99060714 221.125 143.6875 C220.94457153 142.21180542 220.94457153 142.21180542 220.76049805 140.70629883 C220.15764749 135.43287412 219.88800442 130.30734609 220 125 C219.34 125 218.68 125 218 125 C217.79636841 126.96743164 217.79636841 126.96743164 217.58862305 128.97460938 C217.08597317 133.48805633 216.38189313 137.93727916 215.58203125 142.40625 C215.29727139 144.03242613 215.01277818 145.65864897 214.72851562 147.28491211 C214.57938721 148.1332663 214.43025879 148.98162048 214.27661133 149.85568237 C211.73572618 164.33261273 209.39814489 178.81671723 207.35998535 193.3729248 C204.68376 212.43864827 201.22951792 231.21981884 197 250 C196.84984436 250.67260864 196.69968872 251.34521729 196.54498291 252.03820801 C195.5136913 256.65661886 194.45327295 261.26732082 193.375 265.875 C193.11017822 267.02709961 192.84535645 268.17919922 192.57250977 269.36621094 C190.2522646 278.98746587 187.30544958 289.17254535 181 297 C180.34 297 179.68 297 179 297 C178.6596875 298.051875 178.6596875 298.051875 178.3125 299.125 C176.6486479 302.7696284 174.76998691 305.09489178 172 308 C171.01 308 170.02 308 169 308 C168.34 308.99 167.68 309.98 167 311 C166.29875 311.103125 165.5975 311.20625 164.875 311.3125 C158.96539055 312.72566748 154.41229444 317.11469647 151 322 C148.13275314 321.42655063 147.1385485 321.1385485 145 319 C142.36838538 318.93160776 139.81309049 318.96312563 137.1875 319.0625 C127.02176273 319.25747705 118.07747488 317.8009756 109 313 C111.2957334 320.43573827 113.61760673 327.58616933 117.25 334.5 C120.04564086 339.87512392 121.96750211 343.8210645 120.125 349.875 C119.75375 350.90625 119.3825 351.9375 119 353 C118.70507341 355.31557225 118.50461495 357.62069858 118.34375 359.94921875 C118 362 118 362 116 365 C116.33 365.66 116.66 366.32 117 367 C116.34 367 115.68 367 115 367 C114.45627049 370.05847848 114 372.88772805 114 376 C111.69 375.67 109.38 375.34 107 375 C106.67 376.32 106.34 377.64 106 379 C101.62297367 377.77443263 97.30322683 376.46939453 93 375 C92.71125 375.639375 92.4225 376.27875 92.125 376.9375 C90.74579995 379.46603342 89.51832066 379.74083967 87 381 C86.4121875 380.319375 86.4121875 380.319375 85.8125 379.625 C84.07854486 377.87845764 84.07854486 377.87845764 81.75 377.125 C78.64943418 375.85658671 76.35486454 374.13930602 73.6875 372.14453125 C71.9606074 370.85911618 71.9606074 370.85911618 69.5 370.1875 C63.8339956 367.49614791 59.94079569 361.43140803 57.08398438 356.01245117 C56.24982769 354.46381299 55.35327431 352.94866806 54.43164062 351.45043945 C50.07588151 344.33639229 47.01549879 337.37540114 44.5 329.4375 C44.12254639 328.26912598 43.74509277 327.10075195 43.35620117 325.89697266 C33.43403525 294.6543983 26.69614702 262.76683366 25 230 C23.79577393 230.09087891 22.59154785 230.18175781 21.35083008 230.27539062 C16.82416606 230.61570569 12.29704758 230.94962033 7.76977539 231.28173828 C5.82140636 231.42553766 3.87315957 231.57100451 1.92504883 231.71826172 C-8.73307875 232.52275196 -19.30437907 233.27157096 -30 233 C-30.10014404 233.680625 -30.20028809 234.36125 -30.3034668 235.0625 C-31.56070025 243.12165448 -33.31672673 251.01184013 -35.29418945 258.91796875 C-35.81125831 260.9950122 -36.31309162 263.07536707 -36.81445312 265.15625 C-39.50279524 276.09315956 -43.08510122 286.36090569 -49 296 C-49.99 296 -50.98 296 -52 296 C-52.3403125 297.051875 -52.3403125 297.051875 -52.6875 298.125 C-54.31656867 301.69343613 -56.40640731 304.06514511 -59 307 C-60.32 306.67 -61.64 306.34 -63 306 C-63.33 306.99 -63.66 307.98 -64 309 C-65.70016049 309.78468946 -67.40668782 310.56080903 -69.15234375 311.23828125 C-71.21977006 312.03698152 -71.21977006 312.03698152 -73.8125 313.6875 C-76 315 -76 315 -78 315 C-78.66 316.65 -79.32 318.3 -80 320 C-82.57223523 319.54067228 -83.90504236 319.0796419 -85.9375 317.375 C-87.88911394 315.74132191 -87.88911394 315.74132191 -90.125 316.3125 C-91.07375 316.539375 -92.0225 316.76625 -93 317 C-104.70232563 318.02997997 -116.77046381 315.48127933 -126 308 C-132.91355835 301.16902682 -136.1038616 294.40098858 -137.4375 284.875 C-136.81751871 280.80083722 -135.02163071 277.55590402 -133 274 C-131.68 274 -130.36 274 -129 274 C-129.226875 273.401875 -129.45375 272.80375 -129.6875 272.1875 C-129.8421875 271.1046875 -129.8421875 271.1046875 -130 270 C-129.35611328 269.38511719 -129.35611328 269.38511719 -128.69921875 268.7578125 C-126.36463005 266.34272075 -125.42114908 263.78074226 -124.125 260.6875 C-123.8667041 260.07229492 -123.6084082 259.45708984 -123.34228516 258.82324219 C-121.07928329 253.35814129 -119.09070845 247.80396965 -117.14453125 242.21875 C-116.18620794 239.5236701 -115.16088334 236.8897361 -114.0625 234.25 C-111.83187075 228.79130565 -110.02157681 223.19803165 -108.19360352 217.59472656 C-106.79962756 213.33387678 -105.31483734 209.12796758 -103.72094727 204.93798828 C-102.5611825 201.82040862 -101.5358055 198.66053473 -100.5 195.5 C-99.26029884 191.71732209 -97.99647941 187.96860909 -96.54150391 184.2644043 C-95.02543467 180.22799324 -93.96109458 176.19924824 -93.0546875 171.98828125 C-92.887341 171.22203934 -92.71999451 170.45579742 -92.5475769 169.66633606 C-90.55843275 160.28996544 -89.10346689 150.82407667 -87.62277222 141.35690308 C-71.31211341 37.50407554 -71.31211341 37.50407554 -42.9921875 15.984375 C-29.26704808 6.88206322 -15.45046175 2.85957368 1 2 C0.67 1.34 0.34 0.68 0 0 Z M386 17 C385.67 17.66 385.34 18.32 385 19 C385.99 19 386.98 19 388 19 C388 18.34 388 17.68 388 17 C387.34 17 386.68 17 386 17 Z M381 25 C380.34 26.32 379.68 27.64 379 29 C379.99 29.33 380.98 29.66 382 30 C382 28.35 382 26.7 382 25 C381.67 25 381.34 25 381 25 Z M37 27 C38.3089572 30.12197478 38.3089572 30.12197478 41 32 C39.6910428 28.87802522 39.6910428 28.87802522 37 27 Z M382 30 C383 33 383 33 383 33 Z M41 32 C41.66 33.65 42.32 35.3 43 37 C43.66 36.67 44.32 36.34 45 36 C43.68 34.68 42.36 33.36 41 32 Z M1 75 C-1.42687651 77.60705539 -2.49662809 79.98886328 -3.32421875 83.41796875 C-3.54416504 84.321521 -3.76411133 85.22507324 -3.99072266 86.15600586 C-4.22065918 87.15639893 -4.4505957 88.15679199 -4.6875 89.1875 C-4.93806152 90.25685791 -5.18862305 91.32621582 -5.44677734 92.42797852 C-15.97484667 133.83642238 -15.97484667 133.83642238 -20 176 C-14.62431581 175.45362272 -9.24918668 174.90216475 -3.87451172 174.34594727 C-2.04522907 174.15736645 -0.21580149 173.97018612 1.61376953 173.78442383 C4.24030091 173.51749991 6.86627353 173.24557878 9.4921875 172.97265625 C10.31306854 172.89032242 11.13394958 172.80798859 11.97970581 172.72315979 C16.12064715 172.36202127 16.12064715 172.36202127 20 171 C19.50181681 147.48575346 16.69849056 124.21829447 12 101.1875 C11.76321533 100.02081787 11.52643066 98.85413574 11.2824707 97.65209961 C9.6149651 89.87210313 7.57484367 82.14968735 4 75 C3.01 75 2.02 75 1 75 Z M383 83 C384 85 384 85 384 85 Z M30 234 C31 236 31 236 31 236 Z M31 242 C32 245 32 245 32 245 Z M32 249 C33 252 33 252 33 252 Z M33 255 C34 259 34 259 34 259 Z M34 263 C35 266 35 266 35 266 Z M35 271 C36 274 36 274 36 274 Z M36 277 C37 280 37 280 37 280 Z M37 282 C38 286 38 286 38 286 Z M38 287 C39 291 39 291 39 291 Z M39 291 C40 294 40 294 40 294 Z M41 299 C42 303 42 303 42 303 Z M42 303 C42 304.65 42 306.3 42 308 C42.33 308 42.66 308 43 308 C43 306.35 43 304.7 43 303 C42.67 303 42.34 303 42 303 Z M43 309 C44 311 44 311 44 311 Z M44 313 C45 315 45 315 45 315 Z M45 316 C46 318 46 318 46 318 Z M46 319 C47 321 47 321 47 321 Z M47 322 C48 324 48 324 48 324 Z M61 329 C62 331 62 331 62 331 Z M62 331 C63 334 63 334 63 334 Z M63 334 C64 337 64 337 64 337 Z M64 337 C64.33 338.65 64.66 340.3 65 342 C65.33 341.01 65.66 340.02 66 339 C65.34 338.34 64.68 337.68 64 337 Z M66 342 C67 344 67 344 67 344 Z M67 344 C68 346 68 346 68 346 Z M72 354 C73 356 73 356 73 356 Z M65 355 C66 359 66 359 66 359 Z M73 356 C74 358 74 358 74 358 Z M74 358 C75 360 75 360 75 360 Z M78 364 C78.99 364.99 79.98 365.98 81 367 C81.33 366.01 81.66 365.02 82 364 C80.68 364 79.36 364 78 364 Z " fill="#000000" transform="translate(303,109)"/>
<path d="M0 0 C2.6875 2.1875 2.6875 2.1875 5 5 C6.67536391 6.49289854 8.3642907 7.97064095 10.0625 9.4375 C19.1124327 17.58781031 22.30429254 26.17630702 23.0703125 38.1875 C22.96904778 42.23808876 22.10263288 44.54567456 20 48 C19.01 48.66 18.02 49.32 17 50 C17.66 50.66 18.32 51.32 19 52 C19 52.99 19 53.98 19 55 C18.01 55.495 18.01 55.495 17 56 C14.66761581 63.92283845 14.45581439 72.49522196 13.9375 80.6875 C13.8139917 82.52393066 13.8139917 82.52393066 13.68798828 84.39746094 C13.45199761 87.93124594 13.2245052 91.46546899 13 95 C12.88411636 96.79296886 12.76823117 98.58593763 12.65234375 100.37890625 C12.42612227 103.9187626 12.20893654 107.4590754 12 111 C12.66 111 13.32 111 14 111 C14.31517578 110.20916016 14.31517578 110.20916016 14.63671875 109.40234375 C16.56326133 106.00743347 19.14104616 103.38900799 21.8125 100.5625 C22.33392578 100.00240234 22.85535156 99.44230469 23.39257812 98.86523438 C27.1656516 94.82837548 31.05035129 90.91524315 34.9921875 87.04296875 C38.84457195 83.2465318 42.49956785 79.35613985 46.02734375 75.2578125 C48.43202412 72.50552487 50.90030032 69.81409723 53.375 67.125 C54.33074283 66.08334587 55.28647206 65.04167926 56.2421875 64 C57.92988283 62.16184669 59.62271514 60.32906113 61.3203125 58.5 C65.9942992 53.40719729 70.32402072 48.12778724 74.55810547 42.67114258 C80.02604016 35.63757039 85.72236478 28.7947513 91.40332031 21.93310547 C93.6140203 19.25660355 95.80718908 16.56617704 98 13.875 C98.70125 13.02679688 99.4025 12.17859375 100.125 11.3046875 C101.30320619 9.85647572 102.45389529 8.38497188 103.5625 6.8828125 C107.29410488 1.99522133 111.0515452 0.38797279 117 -1 C117 -0.01 117 0.98 117 2 C119.97 2.33 122.94 2.66 126 3 C126 3.66 126 4.32 126 5 C127.98 5.495 127.98 5.495 130 6 C130 6.66 130 7.32 130 8 C132.65228812 9.07525194 135.28368454 10.09456151 138 11 C137.67 12.65 137.34 14.3 137 16 C138.98 16.99 138.98 16.99 141 18 C140.7525 18.9075 140.505 19.815 140.25 20.75 C139.61740673 24.08837848 139.61740673 24.08837848 141.9375 26.375 C142.618125 26.91125 143.29875 27.4475 144 28 C143.690625 29.0725 143.38125 30.145 143.0625 31.25 C142.01285714 34.67779028 142.01285714 34.67779028 141.68359375 36.96484375 C139.39684805 43.77281237 130.87153598 48.95284058 125.3203125 53.12109375 C121.83161227 55.94611869 118.76170392 59.14339148 115.65234375 62.375 C113.59662298 64.40952777 111.53287596 66.28814429 109.34179688 68.16699219 C105.01951106 71.93461517 100.93550221 75.90301452 96.87890625 79.953125 C96.13470932 80.69399353 95.39051239 81.43486206 94.62376404 82.19818115 C93.06028928 83.75662609 91.49813691 85.31639872 89.93725586 86.87744141 C87.57751616 89.23499773 85.20989071 91.58443286 82.84179688 93.93359375 C75.10010126 101.645998 67.66738821 109.3265664 61 118 C59.81676851 119.47269293 58.63193701 120.94410213 57.4453125 122.4140625 C50.06031196 131.7348102 43.36231219 141.28982334 37.05322266 151.36621094 C35.79460528 153.31861416 34.43658884 155.17501743 33 157 C34.56094674 159.0428701 36.12370929 161.08430858 37.6875 163.125 C38.34008789 163.97964844 38.34008789 163.97964844 39.00585938 164.8515625 C41.21630704 167.73333131 43.46091538 170.55302217 45.83203125 173.3046875 C48 176 48 176 48 178 C48.59941406 178.25136719 49.19882812 178.50273437 49.81640625 178.76171875 C52.29362153 180.16650809 53.32960288 181.48305348 54.9375 183.8125 C57.32928322 187.25693432 60.01850808 190.05084589 63 193 C64.74652429 194.75738472 66.49259642 196.5152189 68.23828125 198.2734375 C69.7465923 199.78913247 71.2553905 201.30434063 72.7644043 202.81933594 C73.7920057 203.8519611 74.81870714 204.88548268 75.84448242 205.91992188 C81.71255362 211.83603797 87.62082136 217.62852492 94 223 C94.54648193 223.46809082 95.09296387 223.93618164 95.65600586 224.41845703 C97.203153 225.74335545 98.75647874 227.06054047 100.3125 228.375 C100.86518555 228.84268799 101.41787109 229.31037598 101.98730469 229.79223633 C106.4342831 233.54540966 110.94188053 237.22068262 115.4609375 240.88671875 C117.83357859 242.86148618 120.10576322 244.90817628 122.375 247 C129.80800349 253.68435565 139.80590556 261.86302949 149.51171875 264.74609375 C154.55390536 266.55857068 159.15489509 269.10505239 163.875 271.625 C164.84953125 272.140625 165.8240625 272.65625 166.828125 273.1875 C169.22093706 274.45428286 171.61144536 275.72521318 174 277 C174 278.65 174 280.3 174 282 C168.94260334 281.49426033 165.49134042 280.28970296 161 278 C157.69385473 276.90126601 154.35574346 275.93509847 151 275 C151 274.34 151 273.68 151 273 C150.31550781 272.75894531 149.63101563 272.51789063 148.92578125 272.26953125 C145.43365289 270.75425526 142.35121485 268.77935517 139.1875 266.6875 C138.01469125 265.92000977 136.84151087 265.15308714 135.66796875 264.38671875 C135.08192871 264.00306152 134.49588867 263.6194043 133.89208984 263.22412109 C130.62088843 261.1077593 127.31062314 259.05395745 124 257 C126.57825342 259.13122477 129.16345253 261.25385207 131.75 263.375 C132.84441406 264.27992188 132.84441406 264.27992188 133.9609375 265.203125 C135.02441406 266.07324219 135.02441406 266.07324219 136.109375 266.9609375 C136.75874023 267.49509277 137.40810547 268.02924805 138.07714844 268.57958984 C139.98643102 269.98997659 141.85612768 270.99247493 144 272 C157.22077038 279.40288553 157.22077038 279.40288553 163 284 C163 284.66 163 285.32 163 286 C163.69480469 286.13277344 164.38960937 286.26554687 165.10546875 286.40234375 C168.19870986 287.04102916 171.25040398 287.78856364 174.3125 288.5625 C175.91544922 288.96662109 175.91544922 288.96662109 177.55078125 289.37890625 C178.76314453 289.68634766 178.76314453 289.68634766 180 290 C180 290.66 180 291.32 180 292 C178.56260487 292.02712066 177.12506137 292.04645067 175.6875 292.0625 C174.88699219 292.07410156 174.08648438 292.08570313 173.26171875 292.09765625 C171 292 171 292 168 291 C167.67 291.99 167.34 292.98 167 294 C167.66 294.33 168.32 294.66 169 295 C167.68 295.33 166.36 295.66 165 296 C167.97 297.98 170.94 299.96 174 302 C173.01 302.33 172.02 302.66 171 303 C171.33 303.66 171.66 304.32 172 305 C172.99 305.33 173.98 305.66 175 306 C175 306.66 175 307.32 175 308 C174.34 308 173.68 308 173 308 C173 309.32 173 310.64 173 312 C172.34 312.33 171.68 312.66 171 313 C172.98 313.66 174.96 314.32 177 315 C177 315.66 177 316.32 177 317 C178.32 317.66 179.64 318.32 181 319 C178.10765685 319.82638376 176.11257569 320 173 320 C174.32 321.32 175.64 322.64 177 324 C174.04335481 325.4783226 171.25770263 325.06032783 168 325 C168 324.34 168 323.68 168 323 C167.05382813 323.02320313 166.10765625 323.04640625 165.1328125 323.0703125 C157.48841269 323.19742583 149.97907274 322.95588251 142.375 322.125 C141.63008301 322.04652832 140.88516602 321.96805664 140.11767578 321.88720703 C133.98481894 321.16381595 128.81227435 320.00392144 123.9375 316 C121.87680416 314.31435923 120.21201566 313.08270066 117.72363281 312.11206055 C114.75554664 310.90018958 112.14473563 309.41641426 109.39453125 307.76953125 C108.32783203 307.13080078 107.26113281 306.49207031 106.16210938 305.83398438 C105.05673828 305.16689453 103.95136719 304.49980469 102.8125 303.8125 C101.72646484 303.16474609 100.64042969 302.51699219 99.52148438 301.84960938 C88.0786198 294.97014545 77.51260035 287.20113418 67 279 C65.76830078 278.06414062 65.76830078 278.06414062 64.51171875 277.109375 C51.92787751 267.38069102 40.76796035 255.86588744 29.50027466 244.67550659 C28.38447791 243.56782033 27.26721192 242.4616119 26.14840698 241.35696411 C24.55838073 239.78496611 22.97557415 238.20602713 21.39453125 236.625 C20.47518799 235.70976562 19.55584473 234.79453125 18.60864258 233.8515625 C15.74408476 230.72025362 13.40098496 227.49510126 11 224 C10.96685699 224.6034021 10.93371399 225.2068042 10.89956665 225.82849121 C10.54906822 232.18959326 10.190731 238.55022144 9.828125 244.91064453 C9.69433564 247.27479261 9.5624515 249.63904939 9.43261719 252.00341797 C8.71345566 265.07556176 7.90494132 278.04095078 6 291 C5.83072998 292.24918213 5.66145996 293.49836426 5.48706055 294.78540039 C4.8977981 298.67453256 3.660398 301.46263035 2 305 C1.34 305 0.68 305 0 305 C-0.165 305.639375 -0.33 306.27875 -0.5 306.9375 C-2 309 -2 309 -3.84375 309.3828125 C-5.26825141 309.50152095 -6.69625842 309.58425808 -8.125 309.62890625 C-8.74375 309.75136719 -9.3625 309.87382812 -10 310 C-10.66 310.99 -11.32 311.98 -12 313 C-16.40490263 314.94635233 -20.21402037 315.28152821 -25 315 C-25.33 314.67 -25.66 314.34 -26 314 C-26.66 314.66 -27.32 315.32 -28 316 C-30.66666667 316 -33.33333333 316 -36 316 C-36.66 316.66 -37.32 317.32 -38 318 C-38.33 316.68 -38.66 315.36 -39 314 C-42.05263664 313.01879536 -43.94736336 313.01879536 -47 314 C-47 313.01 -47 312.02 -47 311 C-47.66 311 -48.32 311 -49 311 C-49 310.01 -49 309.02 -49 308 C-49.78375 307.690625 -50.5675 307.38125 -51.375 307.0625 C-54 306 -54 306 -56 305 C-56 305.66 -56 306.32 -56 307 C-56.99 307 -57.98 307 -59 307 C-59.33 306.34 -59.66 305.68 -60 305 C-60.66 305.33 -61.32 305.66 -62 306 C-62 305.01 -62 304.02 -62 303 C-62.99 303 -63.98 303 -65 303 C-65.433125 301.865625 -65.86625 300.73125 -66.3125 299.5625 C-66.869375 298.386875 -67.42625 297.21125 -68 296 C-68.99 295.67 -69.98 295.34 -71 295 C-73.67323438 286.68327081 -74.12434769 277.99725405 -74.31640625 269.31079102 C-74.33723267 268.4784815 -74.35805908 267.64617199 -74.3795166 266.78864098 C-74.4462078 264.00632587 -74.50519556 261.22392987 -74.5625 258.44140625 C-74.58367889 257.4567444 -74.60485779 256.47208256 -74.62667847 255.45758247 C-75.00603245 237.33520483 -75.07995128 219.21573005 -75.0625 201.08984375 C-75.06185799 200.42011174 -75.06121597 199.75037972 -75.0605545 199.0603528 C-75.04963983 188.68604804 -75.02575452 178.31177676 -75 167.9375 C-74.97256797 156.88412006 -74.94919323 145.83075275 -74.9375 134.77734375 C-74.9367107 134.10940528 -74.9359214 133.44146682 -74.93510818 132.75328779 C-74.9134152 113.02443918 -75.0915462 93.31185331 -75.64428711 73.59031677 C-75.88613401 64.93877892 -76.06025685 56.29165201 -76.09375 47.63647461 C-76.1002356 46.76144319 -76.10672119 45.88641176 -76.11340332 44.98486423 C-76.11665732 40.53878757 -75.9019965 36.37676085 -75 32 C-73.35 32 -71.7 32 -70 32 C-69.01 26.72 -68.02 21.44 -67 16 C-66.34 16 -65.68 16 -65 16 C-65 16.66 -65 17.32 -65 18 C-64.01 18 -63.02 18 -62 18 C-62.01160156 17.26394531 -62.02320313 16.52789062 -62.03515625 15.76953125 C-62.04417969 14.79371094 -62.05320312 13.81789063 -62.0625 12.8125 C-62.07990234 11.36810547 -62.07990234 11.36810547 -62.09765625 9.89453125 C-62.00486622 7.14423487 -61.62111685 4.67520409 -61 2 C-60.34 2.33 -59.68 2.66 -59 3 C-59.020625 3.969375 -59.04125 4.93875 -59.0625 5.9375 C-59.35618499 8.87465895 -59.35618499 8.87465895 -58 10 C-57.319375 9.2575 -56.63875 8.515 -55.9375 7.75 C-52.00717887 3.81967887 -47.47104469 1.17236672 -42 0 C-41.01 -0.66 -40.02 -1.32 -39 -2 C-26.42070438 -5.80210221 -12.01387718 -5.58443221 0 0 Z M-69 174 C-69 207 -69 240 -69 274 C-68.67 274 -68.34 274 -68 274 C-67.82647204 270.37529637 -67.66258516 266.75020963 -67.5 263.125 C-67.45230469 262.13113281 -67.40460937 261.13726562 -67.35546875 260.11328125 C-66.50144889 240.71483017 -67.14590392 221.27898996 -67.5 201.875 C-67.54850238 199.16276617 -67.59652246 196.45052386 -67.64453125 193.73828125 C-67.76135521 187.15882351 -67.87995874 180.57939978 -68 174 C-68.33 174 -68.66 174 -69 174 Z M-55 268 C-57.42366587 275.27099761 -57.1245184 283.40437779 -57 291 C-56.67 291 -56.34 291 -56 291 C-54.76892281 283.27279225 -53.7299442 275.8316181 -54 268 C-54.33 268 -54.66 268 -55 268 Z M127 271 C127 271.66 127 272.32 127 273 C127.66 272.67 128.32 272.34 129 272 C128.34 271.67 127.68 271.34 127 271 Z M150 285 C150.33 285.99 150.66 286.98 151 288 C151.66 287.67 152.32 287.34 153 287 C152.01 286.34 151.02 285.68 150 285 Z M-65 286 C-66.29633621 287.06645115 -66.29633621 287.06645115 -66.0625 289.5625 C-66.041875 290.366875 -66.02125 291.17125 -66 292 C-64.89163577 290.11683841 -64.89163577 290.11683841 -64 288 C-64.33 287.34 -64.66 286.68 -65 286 Z M-58 291 C-58 292.98 -58 294.96 -58 297 C-57.34 297 -56.68 297 -56 297 C-56.33 295.02 -56.66 293.04 -57 291 C-57.33 291 -57.66 291 -58 291 Z M148 302 C148.99 303.485 148.99 303.485 150 305 C151.97747122 305.36297936 151.97747122 305.36297936 154.125 305.1875 C155.40375 305.125625 156.6825 305.06375 158 305 C154.99382731 301.99382731 152.17618402 302.40414684 148 302 Z M157 307 C156.67 307.66 156.34 308.32 156 309 C159.93937062 311.74562195 163.20040219 312.72832465 168 313 C168.66 312.34 169.32 311.68 170 311 C167.71151961 308.71151961 166.60592283 308.5103024 163.5 307.875 C162.30890625 307.62363281 162.30890625 307.62363281 161.09375 307.3671875 C159.02596126 306.94242103 159.02596126 306.94242103 157 307 Z " fill="#000000" transform="translate(857,113)"/>
<path d="M0 0 C0.66 0.66 1.32 1.32 2 2 C-1 4 -1 4 -4 4 C-4 3.01 -4 2.02 -4 1 C-2.125 0.375 -2.125 0.375 0 0 Z " fill="#000000" transform="translate(1037,421)"/>
<path d="M0 0 C1.65 0 3.3 0 5 0 C5 0.66 5 1.32 5 2 C3.35 2 1.7 2 0 2 C0 1.34 0 0.68 0 0 Z " fill="#000000" transform="translate(1031,397)"/>
</svg>
